<svg xmlns="http://www.w3.org/2000/svg" xmlns:xlink="http://www.w3.org/1999/xlink" viewBox="0 0 839 469"><defs><style>.cls-1{fill:#22292f;}</style><symbol id="Icon" data-name="Icon" viewBox="0 0 839 469"><path class="cls-1" d="M393.67,311.88a29.71,29.71,0,0,1,0-40.86q8.15-8.28,20.58-8.29A27.3,27.3,0,0,1,434.53,271a29.71,29.71,0,0,1,0,40.86,27.27,27.27,0,0,1-20.28,8.29Q401.81,320.17,393.67,311.88Z"/><path class="cls-1" d="M583.27,175.36q5.93,5.47,5.92,16.13,0,11.85-5.47,17.17T564,215.47l-8.89.89q-14.8,1.78-21.16,9.33t-6.37,20.57v50.63q0,12.15-7.55,18.21t-18.8,6.07q-11.25,0-18.8-6.07t-7.55-18.21V194.45q0-11.25,7.55-17.47a27.73,27.73,0,0,1,18.21-6.21q10.95,0,17.61,5.92t6.66,16.58v5.62a39.46,39.46,0,0,1,15.55-20.13,44.8,44.8,0,0,1,22.65-7.7l4.14-.29Q577.35,169.87,583.27,175.36Z"/><path class="cls-1" d="M825.9,183.53q13,14.37,13,48.41v63.95q0,12.15-7.55,18.21t-18.8,6.07q-11.25,0-18.8-6.07t-7.55-18.21V230.76q0-11.83-4.15-16.58T770,209.44q-10.38,0-16.58,7.4t-6.22,20.43v58.62q0,12.15-7.4,18.21t-19,6.07q-11.26,0-18.8-6.07t-7.55-18.21V230.76q0-11.83-4.15-16.58t-12.14-4.74q-10.36,0-16.43,7.4t-6.07,20.43v58.62q0,12.15-7.55,18.21t-18.8,6.07q-11.25,0-18.8-6.07T603,295.89V193.45q0-11.55,7.85-17.61a29.76,29.76,0,0,1,18.8-6.07q10.35,0,17.32,5.47t7.25,15.84q14.51-21.9,44.41-21.91,31.68,0,42.34,25.76a54.2,54.2,0,0,1,19.84-18.8,56.67,56.67,0,0,1,28.12-7Q812.88,169.17,825.9,183.53Z"/><rect class="cls-1" x="2" y="201" width="307" height="67"/><rect class="cls-1" width="420" height="67"/><rect class="cls-1" y="402" width="180" height="67"/><rect class="cls-1" x="258" y="402" width="581" height="67"/><rect class="cls-1" x="491" width="348" height="67"/></symbol></defs><title>Asset 8</title><g id="Layer_2" data-name="Layer 2"><g id="App_Icon_Kit_A" data-name="App Icon Kit A"><g id="App_Icon_and_Badge_-_Main" data-name="App Icon and Badge - Main"><g id="_1024" data-name="1024"><use id="_YOUR_ICON_HERE_" data-name="[YOUR ICON HERE]" width="839" height="469" xlink:href="#Icon"/></g></g><text/></g></g></svg>